<svg width="44" height="44" viewBox="0 0 44 44" fill="none" xmlns="http://www.w3.org/2000/svg">
<g id="Iconly/Bold/Graph">
<g id="Graph">
<path id="Graph_2" d="M16.4196 9.09244C17.3181 8.92432 18.219 9.37338 18.611 10.1842C18.7085 10.3312 18.7867 10.4896 18.8434 10.6559C19.0925 14.5 19.3581 18.2793 19.6071 22.0583C19.6014 22.4511 19.6632 22.8428 19.7897 23.2155C20.0877 23.9486 20.8292 24.4138 21.6325 24.3717L33.8356 23.5895L33.9186 23.6227C34.4426 23.6313 34.942 23.843 35.3063 24.2126C35.6706 24.5822 35.8699 25.0793 35.861 25.5934C35.3801 32.6005 30.2428 38.4552 23.2516 39.9635C16.2605 41.4718 9.09354 38.2718 5.66082 32.109C4.65149 30.3341 4.01376 28.3791 3.78485 26.359C3.69607 25.7605 3.65721 25.1552 3.66863 24.5504C3.69191 17.0995 8.99692 10.6683 16.4196 9.09244ZM23.6745 3.66861C32.0542 3.91946 39.0574 10.0022 40.3268 18.1325C40.3349 18.1809 40.3348 18.2305 40.3268 18.279C40.3542 18.6637 40.2241 19.0432 39.9655 19.3337C39.7069 19.6241 39.3411 19.8018 38.9489 19.8268L24.8698 20.7555C24.4044 20.7967 23.9427 20.6436 23.5983 20.3337C23.2539 20.0236 23.0584 19.5852 23.0602 19.1266L22.1139 5.29752V5.069C22.1312 4.68016 22.3057 4.3142 22.5983 4.05143C22.891 3.7887 23.2782 3.65103 23.6745 3.66861Z" fill="#61B0BC"/>
</g>
</g>
</svg>
