<svg width="44" height="44" viewBox="0 0 44 44" fill="none" xmlns="http://www.w3.org/2000/svg">
<g id="Iconly/Bold/Shield Done">
<g id="Shield Done">
<path id="Shield Done_2" d="M20.7908 3.8618C21.5106 3.60652 22.3139 3.60101 23.0466 3.84911L35.2146 7.93211C36.5767 8.38695 37.4982 9.63825 37.5056 11.0405L37.5827 23.2143C37.6067 26.9052 36.2616 30.485 33.7976 33.2895C32.6644 34.5767 31.212 35.6826 29.3572 36.6714L22.8161 40.1675C22.6114 40.2753 22.3859 40.3316 22.1589 40.3335C21.932 40.3353 21.7047 40.2813 21.5017 40.1753L14.8992 36.7593C13.0242 35.7868 11.559 34.6972 10.4148 33.4282C7.91027 30.6525 6.51797 27.0891 6.49388 23.3931L6.41673 11.227C6.40937 9.823 7.31397 8.56313 8.66868 8.09032L20.7908 3.8618ZM28.866 16.9009C28.3215 16.3777 27.4441 16.3813 26.907 16.9116L20.7312 22.9985L18.2029 20.5679C17.6584 20.0449 16.7837 20.0505 16.2449 20.5806C15.7078 21.1109 15.7131 21.9636 16.2576 22.4868L19.7702 25.8667C20.0433 26.1289 20.3975 26.2579 20.7517 26.2544C21.106 26.2526 21.4588 26.12 21.7283 25.854L28.8767 18.8061C29.4135 18.2759 29.4082 17.424 28.866 16.9009Z" fill="#61B0BC"/>
</g>
</g>
</svg>
