<svg width="44" height="44" viewBox="0 0 44 44" fill="none" xmlns="http://www.w3.org/2000/svg">
<g id="Iconly/Bold/Star">
<g id="Star">
<path id="Star_2" d="M32.8506 26.2535C32.3758 26.7137 32.1576 27.3792 32.2658 28.0318L33.8956 37.0518C34.0331 37.8163 33.7104 38.59 33.0706 39.0318C32.4436 39.4902 31.6094 39.5452 30.9256 39.1785L22.8058 34.9435C22.5235 34.7932 22.21 34.7125 21.8891 34.7033H21.3923C21.22 34.729 21.0513 34.784 20.8973 34.8683L12.7756 39.1235C12.3741 39.3252 11.9195 39.3967 11.474 39.3252C10.3886 39.1198 9.66445 38.0858 9.84229 36.995L11.474 27.975C11.5821 27.3168 11.364 26.6477 10.8891 26.1802L4.26895 19.7635C3.71529 19.2263 3.52279 18.4197 3.77579 17.6918C4.02145 16.9658 4.64845 16.436 5.40562 16.3168L14.5173 14.995C15.2103 14.9235 15.819 14.5018 16.1306 13.8785L20.1456 5.64683C20.241 5.4635 20.3638 5.29483 20.5123 5.15183L20.6773 5.0235C20.7635 4.92816 20.8625 4.84933 20.9725 4.78516L21.1723 4.71183L21.484 4.5835H22.2558C22.9451 4.655 23.552 5.0675 23.8691 5.6835L27.9373 13.8785C28.2306 14.478 28.8008 14.8942 29.459 14.995L38.5706 16.3168C39.3406 16.4268 39.9841 16.9585 40.2389 17.6918C40.4791 18.427 40.2719 19.2337 39.7073 19.7635L32.8506 26.2535Z" fill="#61B0BC"/>
</g>
</g>
</svg>
