<svg width="44" height="44" viewBox="0 0 44 44" fill="none" xmlns="http://www.w3.org/2000/svg">
<g id="Iconly/Bold/Ticket Star">
<g id="Ticket Star">
<path id="Ticket Star_2" d="M32.736 5.5C36.9233 5.5 40.3317 8.8773 40.3317 13.0264L40.3337 17.9346C40.3336 18.2942 40.1889 18.6432 39.9323 18.8975C39.6739 19.1535 39.3252 19.2968 38.9587 19.2969C37.4535 19.2969 36.2282 20.5105 36.2282 22.002C36.2283 23.4933 37.4535 24.707 38.9587 24.707C39.7175 24.7072 40.3337 25.3174 40.3337 26.0693V30.9756C40.3337 35.1246 36.9271 38.4999 32.7399 38.5H11.2624C7.07504 38.5 3.66667 35.1247 3.66667 30.9756V26.0693C3.66667 25.3173 4.28267 24.707 5.04167 24.707C6.54863 24.707 7.77304 23.4933 7.77312 22.002C7.77312 20.5487 6.59817 19.4551 5.04167 19.4551C4.67692 19.4551 4.32848 19.3117 4.06999 19.0557C3.81155 18.7996 3.66674 18.4524 3.66667 18.0928L3.67058 13.0264C3.67058 8.8773 7.07699 5.5 11.2643 5.5H32.736ZM21.9997 14.9482C21.4829 14.9483 21.0177 15.2352 20.7848 15.6963L19.4479 18.3799L16.4665 18.8105C15.9517 18.8834 15.5301 19.2316 15.3669 19.7217C15.2056 20.2121 15.3358 20.7429 15.7096 21.1025L17.8717 23.1885L17.362 26.1367C17.2741 26.6451 17.4807 27.1498 17.902 27.4531C18.1403 27.622 18.4175 27.7099 18.6979 27.71C18.9123 27.71 19.1289 27.6572 19.3268 27.5537L21.9997 26.1621L24.6676 27.5498C25.1296 27.7949 25.6776 27.7563 26.0973 27.4512C26.5207 27.1497 26.7282 26.6452 26.6403 26.1367L26.1286 23.1885L28.2897 21.1025C28.6656 20.7429 28.7957 20.2122 28.6325 19.7217C28.4711 19.2316 28.05 18.8825 27.5407 18.8115L24.5534 18.3799L23.2175 15.6982C22.9883 15.2369 22.5224 14.9501 22.0036 14.9482H21.9997Z" fill="#61B0BC"/>
</g>
</g>
</svg>
